<?xml version="1.0" encoding="utf-8"?>
<!-- Generator: Adobe Illustrator 21.1.0, SVG Export Plug-In . SVG Version: 6.00 Build 0)  -->
<svg version="1.1" id="레이어_1" xmlns="http://www.w3.org/2000/svg" xmlns:xlink="http://www.w3.org/1999/xlink" x="0px"
	 y="0px" viewBox="0 0 20 20" style="enable-background:new 0 0 20 20;" xml:space="preserve">
<style type="text/css">
	.st0{fill:#FF7754;}
	.st1{enable-background:new    ;}
	.st2{fill:#FFFFFF;}
</style>
<g id="그룹_7" transform="translate(-478 6662)">
	<g transform="matrix(1, 0, 0, 1, 478, -6662)">
		<circle id="타원_1-2" class="st0" cx="10" cy="10" r="10"/>
	</g>
	<g transform="matrix(1, 0, 0, 1, 478, -6662)">
		<g class="st1">
			<path class="st2" d="M10.9,7.8c0-0.8-0.5-1.3-1.4-1.3c-0.7,0-1.3,0.4-1.8,0.9L6.5,6.2c0.8-0.9,2-1.6,3.4-1.6c1.9,0,3.3,1,3.3,3
				c0,2.3-2.8,3-2.5,5.3h-2C8.2,10.4,10.9,9.4,10.9,7.8z M8.2,15.7c0-0.9,0.6-1.5,1.5-1.5c0.8,0,1.5,0.7,1.5,1.5s-0.6,1.5-1.5,1.5
				C8.8,17.2,8.2,16.6,8.2,15.7z"/>
		</g>
	</g>
</g>
</svg>
